<svg width="48" height="48" viewBox="0 0 48 48" fill="none" xmlns="http://www.w3.org/2000/svg">
<circle cx="24" cy="24" r="24" fill="#344966"/>
<path d="M13.1667 21.0284C13.1667 19.0797 14.7464 17.5 16.6951 17.5V17.5C17.8748 17.5 18.9765 16.9104 19.6309 15.9288L19.6667 15.875C20.3436 14.8598 21.483 14.25 22.7031 14.25H25.2971C26.5172 14.25 27.6566 14.8598 28.3334 15.875L28.3693 15.9288C29.0237 16.9104 30.1253 17.5 31.3051 17.5V17.5C33.2537 17.5 34.8334 19.0797 34.8334 21.0284V29.75C34.8334 31.9591 33.0426 33.75 30.8334 33.75H17.1667C14.9576 33.75 13.1667 31.9591 13.1667 29.75V21.0284Z" stroke="#F0F4EF" stroke-width="2" stroke-linecap="round" stroke-linejoin="round"/>
<ellipse cx="24.0001" cy="25.0833" rx="4.33333" ry="4.33333" stroke="#F0F4EF" stroke-width="2" stroke-linecap="round" stroke-linejoin="round"/>
</svg>
