<svg width="26" height="26" viewBox="0 0 26 26" fill="none" xmlns="http://www.w3.org/2000/svg">
<path d="M12.3079 2.74122C12.5646 2.12645 13.4355 2.12645 13.6922 2.74122L16.1487 8.62582C16.2512 8.87151 16.4764 9.04441 16.7402 9.08012L23.2043 9.95501C23.8545 10.043 24.0862 10.8645 23.5779 11.2793L18.5825 15.3557C18.3611 15.5364 18.2616 15.8273 18.326 16.1058L19.9234 23.0084C20.0785 23.6786 19.3249 24.1866 18.7618 23.7914L13.4309 20.0499C13.1723 19.8684 12.8278 19.8684 12.5692 20.0499L7.23821 23.7915C6.67518 24.1866 5.92158 23.6787 6.07666 23.0085L7.67389 16.1058C7.73833 15.8273 7.63886 15.5364 7.41738 15.3557L2.42218 11.2793C1.91385 10.8645 2.1456 10.043 2.79577 9.95501L9.25989 9.08012C9.52373 9.04441 9.74885 8.87151 9.85141 8.62582L12.3079 2.74122Z" stroke="#BFCC94" stroke-width="2" stroke-miterlimit="3.3292" stroke-linecap="round" stroke-linejoin="round"/>
</svg>
